<?xml version="1.0" encoding="UTF-8"?>
<!-- Created with Inkscape (http://www.inkscape.org/) -->
<svg width="2e3" height="2e3" version="1.1" viewBox="0 0 529.17 529.17" xmlns="http://www.w3.org/2000/svg" xmlns:cc="http://creativecommons.org/ns#" xmlns:dc="http://purl.org/dc/elements/1.1/" xmlns:osb="http://www.openswatchbook.org/uri/2009/osb" xmlns:rdf="http://www.w3.org/1999/02/22-rdf-syntax-ns#">
 <metadata>
  <rdf:RDF>
   <cc:Work rdf:about="">
    <dc:format>image/svg+xml</dc:format>
    <dc:type rdf:resource="http://purl.org/dc/dcmitype/StillImage"/>
    <dc:title/>
   </cc:Work>
  </rdf:RDF>
 </metadata>
 <g transform="matrix(2.813 0 0 2.813 -38.823 -28.937)">
  <g>
   <g>
    <path d="m14.117 151.7 37.477-106.24 32.411 49.42-21.923 37.042-43.184 15.592z" fill="#009e00"/>
    <path d="m33.141 130.49 21.382-62.474 22.918 34.21-26.527 32.34z" fill="#080"/>
    <path d="m45.168 124.93 12.473-36.475 13.135 20.033-14.363 19.277z" fill="#007100" stroke="#007100" stroke-width=".26458px"/>
   </g>
   <g>
    <path d="m55.751 122.85 55.846-86.273 36.097 49.609-32.033 46.113-55.94-7.654z" fill="#0b0"/>
    <path d="m74.367 119.45 38.365-58.87 26.175 36.097-27.12 34.112z" fill="#009e00"/>
    <path d="m88.824 121.05 24.946-38.743 24.946 33.451-32.128 17.765z" fill="#080"/>
   </g>
   <g stroke-width=".26458px">
    <path d="m108.94 126.19 50.171-74.268 42.25 82.324-7.6481 14.021-40.821 8.5045z" fill="#00d700" stroke="#00d700"/>
    <path d="m122.01 131.83 35.814-53.053 33.275 66.817-15.903 8.1517z" fill="#0b0" stroke="#0b0"/>
    <path d="m132.95 136.36 23.718-35.057 23.057 46.397-23.529 1.6064z" fill="#009e00" stroke="#009e00"/>
   </g>
  </g>
  <path d="m14.117 151.7s16.186-29.341 48.372-34.088c37.661-5.5547 83.884 29.834 115.78 29.054 16.84-0.41171 23.241-12.414 23.241-12.414s-3.9141 18.621-20.128 29.612c-4.5794 3.1044-23.697 4.371-23.697 4.371s-55.358-22.755-88.897-26.535c-32.136-3.6219-54.672 9.9997-54.672 9.9997z" fill="#0026ff"/>
  <path d="m14.117 151.7s19.337-20.287 52.114-23.13c26.463-2.2958 40.12 11.919 81.91 32.601 17.007 8.4168 33.24 2.6941 33.24 2.6941s-6.5735 5.0814-16.825 7.0308c-15.937 3.0304-28.767 0.64314-40.5-3.6687-18.616-6.8414-34.096-22.831-55.22-25.409-28.678-3.5005-54.719 9.8828-54.719 9.8828z" fill="#000b78"/>
  <path d="m14.117 151.7s17.223-12.8 43.071-13.184c8.1297-0.12102 20.625-0.0552 39.412 9.5966 10.172 5.5186 27.46 19.116 27.46 19.116-3.443-1.2652-6.7915-2.6961-10.096-4.2045-14.566-6.6482-28.283-14.802-45.502-16.903-28.678-3.5005-54.345 5.5797-54.345 5.5797z" fill="#000448"/>
 </g>
</svg>
